<svg width="13" height="4" viewBox="0 0 13 4" fill="none" xmlns="http://www.w3.org/2000/svg">
<path d="M12.2623 0.64L11.2223 0.0799998C11.129 0.0266664 11.009 -3.57628e-07 10.8623 -3.57628e-07C10.7157 -3.57628e-07 10.589 0.0266664 10.4823 0.0799998L6.76234 2.06C6.66901 2.11333 6.54901 2.14 6.40234 2.14C6.26901 2.14 6.14901 2.11333 6.04234 2.06L2.32234 0.0799998C2.22901 0.0266664 2.10901 -3.57628e-07 1.96234 -3.57628e-07C1.81568 -3.57628e-07 1.68901 0.0266664 1.58234 0.0799998L0.562344 0.64C0.469011 0.693333 0.422344 0.759999 0.422344 0.84C0.422344 0.906666 0.469011 0.966666 0.562344 1.02L6.04234 3.92C6.14901 3.97333 6.26901 4 6.40234 4C6.54901 4 6.66901 3.97333 6.76234 3.92L12.2623 1.02C12.369 0.966666 12.4223 0.906666 12.4223 0.84C12.4223 0.759999 12.369 0.693333 12.2623 0.64Z" fill="black"/>
</svg>
